P2
100 100
255
1
175
187
32
196
149
216
137
239
94
230
214
224
24
217
141
23
89
104
82
207
36
158
62
36
83
145
102
1
131
114
122
222
97
135
209
95
127
140
123
123
249
68
205
114
174
108
73
72
199
0
147
203
61
102
244
11
247
36
70
17
26
145
214
144
69
201
96
227
217
180
201
31
135
245
155
42
109
215
170
2
9
132
232
135
169
24
46
78
143
153
237
71
37
54
92
153
29
4
45
44
53
22
228
120
188
212
223
191
235
53
33
104
58
124
13
67
199
181
2
113
242
253
84
24
243
146
55
10
50
145
142
54
245
234
251
232
0
222
48
108
176
133
179
96
224
94
154
80
9
114
245
48
39
248
208
73
150
145
74
105
61
88
252
153
156
77
179
155
209
98
109
2
138
133
168
217
146
41
138
194
21
3
203
204
144
177
25
40
149
40
148
110
29
142
205
99
95
58
176
87
6
10
150
46
112
170
82
221
69
96
116
227
74
150
114
150
92
85
195
76
4
61
247
86
205
212
168
137
13
244
34
134
60
125
166
16
254
44
157
127
35
188
77
224
28
104
72
113
219
123
170
16
190
244
209
140
219
67
111
179
83
82
135
37
245
190
186
170
238
13
250
5
122
247
183
84
150
155
111
225
3
129
48
39
111
223
227
144
200
252
239
249
250
214
146
29
252
213
77
18
210
106
220
254
200
73
6
198
228
232
34
73
120
171
141
191
52
222
103
215
32
240
163
7
84
38
213
158
249
82
82
50
85
245
192
229
227
131
236
112
155
91
251
63
88
83
86
193
27
124
252
65
135
193
233
89
90
185
86
165
85
230
231
105
234
17
1
20
160
198
228
12
232
86
17
1
71
163
88
11
141
91
64
151
35
196
130
144
24
115
1
177
197
26
148
213
99
92
224
231
90
100
67
121
22
118
67
3
200
208
166
220
230
68
217
195
192
221
84
52
150
163
157
202
7
8
110
75
51
248
73
150
68
28
220
231
31
114
38
44
136
203
113
116
137
11
245
251
136
1
15
222
20
93
20
95
121
247
115
23
194
95
77
244
76
149
14
175
157
3
184
205
139
55
5
255
32
178
169
118
121
83
4
185
175
140
86
67
132
237
187
101
193
129
3
105
112
49
142
180
101
178
105
7
82
80
163
26
219
130
29
232
249
93
128
211
85
244
228
83
124
80
111
9
8
97
115
239
219
199
44
241
221
35
139
166
229
179
199
128
99
27
144
192
43
22
225
50
68
103
185
231
58
116
94
12
18
146
175
154
58
124
221
236
136
84
218
83
174
190
142
87
67
161
112
89
19
39
194
124
249
29
154
238
160
198
22
227
103
83
16
138
204
43
112
36
147
166
5
32
58
55
253
141
138
253
222
201
160
203
255
122
9
30
245
206
207
37
232
119
163
96
51
249
86
240
85
204
106
112
199
100
41
241
200
121
182
75
159
62
98
40
138
239
21
139
218
97
241
57
25
111
203
38
65
143
209
157
142
89
195
90
223
165
203
159
154
146
197
118
11
219
151
245
86
29
167
187
32
52
2
46
121
197
15
75
116
221
222
76
3
17
118
122
198
198
177
114
72
14
120
122
5
10
80
242
213
4
121
190
236
73
192
97
189
179
62
221
221
158
75
58
73
182
141
115
120
114
70
247
146
10
179
45
15
120
140
94
15
177
116
249
90
133
108
123
139
192
172
151
6
42
233
120
92
45
18
67
36
141
38
232
5
130
118
128
194
194
131
65
230
141
61
79
243
88
135
129
253
83
70
61
117
83
25
152
13
107
252
69
81
69
201
235
65
70
58
253
250
219
173
74
44
146
205
215
214
63
233
45
249
193
224
181
104
120
172
117
194
8
103
219
195
141
84
45
0
224
72
23
6
180
255
21
125
156
193
195
175
173
140
46
120
127
90
113
139
15
201
157
123
32
230
166
0
54
110
93
99
59
233
108
165
7
195
47
60
194
217
232
33
81
149
226
140
220
144
151
152
197
107
5
127
129
163
122
148
199
34
12
98
109
183
62
52
234
21
14
95
36
38
50
207
140
130
103
79
85
150
109
205
90
58
74
20
247
211
3
39
71
138
154
36
227
251
136
228
242
87
79
204
197
22
42
204
252
135
76
12
9
107
49
183
186
68
170
131
188
137
167
33
76
240
93
178
249
151
166
206
114
231
157
108
229
8
27
33
128
169
92
88
199
248
73
47
29
140
161
214
174
203
127
50
122
243
231
69
105
96
83
24
53
187
211
242
85
45
174
93
175
56
15
112
134
159
99
141
199
29
104
113
244
228
206
179
98
234
191
187
186
158
254
6
27
58
158
45
110
38
224
211
194
240
160
165
233
64
74
149
53
87
107
124
224
47
17
3
79
173
30
78
15
175
190
230
106
60
105
13
46
93
43
251
185
156
232
226
224
63
17
127
130
184
63
191
162
218
230
50
219
156
172
17
146
117
84
114
14
67
133
192
128
73
56
65
56
54
6
121
164
131
59
217
148
249
49
252
177
128
84
181
189
182
165
174
249
217
14
149
88
62
6
32
191
47
201
123
246
113
77
192
51
145
102
227
243
110
62
118
173
248
218
221
127
34
16
102
163
215
170
65
207
133
33
179
177
61
31
117
134
39
219
17
16
254
241
235
99
104
35
87
163
6
127
74
132
210
220
243
54
17
60
58
117
133
20
53
64
90
36
106
239
225
124
216
164
213
233
49
135
143
17
17
248
105
214
177
42
115
18
68
32
1
15
151
24
160
74
209
148
223
22
180
105
192
222
82
204
173
189
31
74
122
164
179
251
86
87
90
78
74
23
27
205
21
215
100
30
171
198
9
254
206
202
38
169
192
4
74
173
40
209
210
197
125
192
213
227
213
122
147
168
75
209
220
252
108
92
96
65
95
193
20
65
7
219
53
149
148
122
52
180
231
123
21
205
165
245
147
14
242
159
230
161
174
177
186
80
197
226
49
107
162
103
218
93
188
157
29
36
32
8
26
70
131
143
119
172
90
202
183
68
129
58
93
186
193
9
11
28
209
54
242
249
223
174
25
98
209
76
141
229
187
41
36
15
123
105
74
38
141
139
48
145
183
226
63
215
190
126
113
139
216
63
165
100
153
142
88
85
101
44
28
121
45
122
231
79
39
14
178
106
4
253
213
239
138
99
159
195
13
52
180
64
231
196
229
165
168
223
204
81
134
212
84
168
165
186
122
191
105
216
33
88
118
244
41
19
46
59
47
109
238
80
56
244
219
44
151
168
243
82
15
55
105
130
206
109
173
171
129
30
30
239
53
194
75
12
199
165
30
17
59
25
149
223
62
20
145
254
95
17
24
148
37
172
63
23
116
116
97
186
197
101
70
162
137
184
152
68
196
240
7
71
222
88
76
242
111
140
163
198
250
32
5
1
121
115
221
230
168
90
239
120
151
225
252
38
11
47
196
89
95
153
63
240
189
220
110
162
253
44
182
213
73
80
159
161
225
240
243
108
20
38
16
94
221
19
49
37
179
153
241
64
140
76
44
156
107
20
167
222
114
84
10
234
110
44
31
10
202
160
151
11
72
70
166
19
210
108
223
14
128
99
25
231
195
129
2
205
76
1
58
99
82
63
195
93
209
116
112
160
139
214
81
170
200
52
240
203
179
204
10
61
176
213
10
132
119
155
236
202
98
167
224
191
50
206
111
9
1
243
209
82
130
216
1
233
139
237
193
181
35
177
253
57
243
47
226
217
210
192
251
171
73
175
97
82
85
89
111
39
46
32
65
75
218
150
54
23
254
174
89
120
196
165
213
237
12
243
154
29
35
160
242
249
161
9
204
110
60
28
168
156
222
6
143
62
222
162
211
126
14
120
216
231
94
251
125
188
125
18
46
189
196
90
132
34
197
18
177
170
178
14
229
127
140
80
138
26
173
169
215
209
18
53
198
60
170
2
226
222
48
189
14
123
132
193
213
123
66
65
244
59
245
170
56
96
136
242
115
153
197
69
216
139
17
180
218
125
111
217
227
193
31
165
19
67
45
128
187
131
153
222
178
122
190
199
62
13
91
78
213
153
114
210
49
6
119
93
202
177
186
240
59
27
180
195
83
90
54
194
104
40
197
195
215
16
177
121
178
214
95
162
95
172
217
136
228
217
202
197
70
28
6
177
226
218
178
26
90
51
104
28
136
241
76
23
84
93
76
27
102
67
36
121
89
170
171
45
185
161
245
243
212
85
86
219
247
165
87
139
105
118
28
213
5
239
81
81
171
126
243
181
14
226
53
109
238
50
225
178
233
103
57
190
9
247
233
32
231
61
185
216
9
229
25
59
196
165
82
139
101
248
58
148
193
150
194
100
148
72
50
254
89
55
249
146
81
85
104
33
157
147
131
81
139
10
177
214
183
39
118
189
116
255
59
164
245
188
235
133
235
11
254
217
67
159
178
248
207
152
164
123
19
117
100
242
231
204
2
35
253
124
77
14
120
141
52
125
197
146
87
223
29
1
120
140
16
104
176
99
21
176
250
37
68
32
69
111
214
147
205
169
37
35
193
232
215
155
204
135
221
150
194
212
91
225
244
40
119
43
25
213
107
242
124
14
87
140
164
148
97
5
44
207
36
33
202
30
42
60
53
115
0
117
34
6
78
191
89
6
146
163
254
89
89
228
143
47
24
62
104
203
225
65
2
227
98
108
154
182
128
216
75
65
2
125
117
158
30
165
156
159
200
123
99
53
198
107
24
210
133
148
203
204
223
247
246
16
201
116
136
215
200
104
1
250
104
146
137
132
141
62
156
165
249
87
211
245
5
174
214
11
232
249
118
246
181
150
138
182
249
182
59
229
133
199
111
132
170
211
49
56
126
82
195
254
76
13
186
118
63
6
80
122
242
157
24
183
110
223
12
2
34
143
151
8
134
106
202
244
179
6
182
9
31
146
4
87
223
185
46
129
249
87
38
152
193
77
241
102
195
117
54
81
27
39
61
138
73
88
242
161
43
231
102
241
172
155
38
177
71
213
132
142
241
32
218
46
173
65
227
108
208
57
173
102
251
160
111
170
36
69
210
65
82
150
17
198
46
23
24
125
132
196
244
198
177
65
24
240
106
141
58
235
102
34
144
14
203
40
104
104
210
219
30
96
200
161
60
11
62
143
249
74
128
89
166
88
157
53
69
230
98
230
0
32
214
38
184
168
255
211
173
30
1
140
32
108
36
85
127
218
20
97
250
245
181
163
138
108
31
235
86
225
24
40
217
63
234
97
25
93
211
72
230
108
117
201
13
148
227
213
70
44
14
33
98
82
85
85
219
248
137
174
230
190
176
199
205
171
54
162
188
175
152
108
108
44
85
166
136
48
76
205
171
70
68
250
189
105
128
108
53
188
177
76
162
198
244
241
3
123
99
236
190
243
87
152
254
170
0
171
66
131
253
163
194
121
197
210
2
25
65
222
120
12
136
62
94
20
225
110
38
207
208
200
159
222
155
124
32
101
160
194
10
143
66
209
41
205
64
199
135
4
66
239
21
113
162
90
206
201
197
13
0
45
205
89
173
48
166
81
45
144
215
118
149
254
12
23
183
83
12
249
66
109
148
231
124
145
169
38
244
150
199
116
35
100
25
163
82
74
8
220
204
9
77
148
209
39
5
73
99
194
240
206
81
28
110
103
216
105
53
229
125
17
238
167
110
214
135
53
75
212
28
141
10
136
1
52
21
118
5
90
69
92
5
175
113
67
96
105
118
94
160
30
198
103
4
181
150
132
67
234
251
73
184
173
72
237
164
117
154
200
127
101
220
169
7
28
86
189
33
169
167
86
159
132
87
226
19
249
90
120
151
117
125
126
146
41
226
219
0
137
10
33
145
185
14
174
250
3
37
100
185
119
43
168
191
142
116
240
101
125
171
189
94
240
54
250
44
52
185
176
122
196
34
91
236
97
201
176
62
136
23
50
100
207
194
216
210
68
121
157
16
150
29
232
170
178
157
232
251
121
129
89
124
199
248
197
5
144
208
184
197
103
62
115
45
151
30
84
252
78
82
221
34
152
15
77
48
126
60
163
192
200
22
143
6
189
65
184
160
100
215
15
148
215
154
190
181
131
102
52
144
245
79
230
63
85
138
4
61
42
24
85
27
253
73
227
92
84
121
253
209
208
60
104
33
128
215
214
107
152
120
173
169
20
4
39
238
175
252
107
69
141
65
194
53
8
29
215
41
146
177
8
86
187
81
46
135
253
23
233
59
209
85
174
4
57
233
134
20
85
35
234
13
59
211
37
92
149
38
108
192
133
16
95
29
160
26
81
11
201
243
251
82
77
135
137
230
130
125
50
233
240
123
96
255
70
172
109
70
64
44
145
180
139
105
48
99
252
151
35
13
185
102
64
107
221
111
230
194
38
135
187
220
39
112
131
88
117
227
52
97
35
138
146
13
30
56
26
179
97
132
51
251
127
86
252
165
1
254
139
206
204
40
7
66
139
212
122
107
25
227
66
116
69
230
58
134
118
102
197
60
63
85
253
193
24
137
243
180
77
210
156
149
94
106
235
205
101
115
77
100
122
185
13
17
146
15
248
223
149
95
208
173
176
248
74
241
236
57
71
164
225
99
168
99
181
34
167
67
109
11
165
140
239
82
197
47
209
28
73
29
137
104
196
102
237
65
227
241
99
176
125
107
198
39
250
19
191
37
176
142
59
217
148
218
190
34
139
210
92
111
106
12
168
0
167
208
130
120
213
113
117
115
230
255
250
238
162
228
229
178
131
242
207
202
225
127
194
208
11
35
95
214
213
87
102
112
107
58
139
238
61
8
252
190
254
253
56
11
189
255
58
230
173
13
65
197
58
52
221
163
32
100
113
139
51
164
154
133
85
112
231
207
114
138
159
22
197
190
109
219
7
195
51
212
216
140
134
93
13
237
163
117
167
14
71
153
190
230
239
220
216
88
31
158
141
156
199
158
205
212
51
254
168
178
186
145
35
22
70
30
8
253
7
240
198
192
108
129
151
37
211
71
133
89
190
118
80
162
156
174
74
152
163
183
118
173
240
79
76
234
99
70
161
192
240
169
231
77
117
237
19
101
239
161
0
209
165
89
113
108
89
88
225
197
63
58
40
107
182
106
200
118
1
38
42
150
177
105
92
122
121
46
79
193
159
5
138
207
33
224
173
156
184
106
4
224
98
204
86
233
67
226
24
24
207
18
95
67
193
245
20
175
84
185
200
137
129
166
96
12
121
36
149
215
246
107
142
107
200
250
179
144
93
184
131
8
117
202
19
245
163
86
111
244
25
172
165
94
231
55
124
82
186
4
143
117
187
93
254
25
161
85
96
160
78
139
93
174
154
171
129
71
27
174
64
158
104
56
151
91
137
175
130
57
167
92
9
202
238
244
10
179
234
44
33
227
92
98
104
78
72
62
108
67
17
209
74
234
98
59
95
7
126
82
210
174
49
228
121
94
76
232
194
156
182
208
97
128
0
40
152
136
76
226
138
173
136
96
194
8
93
74
129
72
220
185
219
131
198
199
188
154
112
75
79
131
138
24
67
87
51
21
188
11
79
96
55
173
19
25
163
197
31
246
231
171
115
195
167
92
96
39
244
77
80
93
34
187
57
113
123
205
134
243
140
96
248
199
50
172
253
161
242
231
230
177
235
116
11
224
114
234
70
195
45
200
62
163
100
163
5
165
196
106
105
110
5
55
237
195
153
213
229
146
23
150
42
95
164
101
61
73
99
41
159
213
238
167
204
59
27
251
251
207
42
255
9
188
38
81
234
251
88
168
40
253
15
251
203
158
14
170
77
83
236
27
2
207
98
126
22
215
14
76
16
144
52
3
47
52
2
108
98
117
149
97
238
130
209
252
23
19
9
205
112
173
137
183
87
212
28
11
64
89
34
237
50
68
10
91
181
168
33
247
164
143
212
162
21
253
93
116
189
111
203
202
77
144
70
174
30
52
104
162
45
49
69
205
166
114
176
234
179
220
245
160
42
142
62
225
8
85
7
49
121
22
196
9
0
183
14
44
252
58
234
17
25
187
142
228
246
87
14
228
46
182
53
167
24
75
49
232
17
132
181
144
211
185
106
113
102
231
226
47
155
224
178
220
99
168
204
23
211
48
149
244
37
50
176
93
199
221
189
110
170
54
178
169
99
41
150
136
42
115
126
248
132
124
45
213
200
83
65
86
247
172
112
150
203
90
193
245
40
14
33
139
146
118
230
135
39
111
153
94
144
162
144
205
2
108
152
65
110
244
70
167
125
39
34
60
33
113
87
167
147
56
234
213
52
6
72
213
145
64
206
43
132
138
97
227
191
161
196
71
114
119
251
12
225
86
190
181
140
93
19
11
127
237
22
189
127
92
10
131
119
245
208
40
76
200
120
250
119
120
42
94
168
193
141
248
32
145
33
57
151
146
204
56
111
105
114
120
71
26
9
219
148
59
180
190
185
219
22
13
123
6
209
228
144
61
146
25
203
253
243
115
149
86
42
205
245
2
238
149
63
147
148
237
185
147
159
162
189
16
40
182
112
232
80
67
194
223
233
81
144
178
164
93
200
248
1
133
56
89
125
186
243
117
160
176
135
94
64
230
76
19
75
79
216
209
243
90
143
188
230
36
89
15
11
12
16
246
202
208
245
143
6
34
158
163
38
241
62
46
78
5
93
39
15
24
198
194
74
101
192
196
227
149
226
209
248
72
16
239
241
49
192
211
112
179
25
30
200
160
29
18
181
232
173
69
203
217
82
25
112
57
157
212
54
211
161
226
28
58
243
237
165
126
144
100
132
201
2
165
199
177
202
92
62
193
171
99
180
44
107
187
166
238
10
229
190
39
15
159
178
50
217
199
30
246
79
244
139
184
206
4
197
84
84
138
3
99
24
99
97
104
236
110
73
222
130
254
145
165
99
100
33
91
27
140
224
244
186
29
189
60
197
121
4
240
115
44
140
241
45
189
103
227
39
192
210
117
86
239
56
243
30
55
205
12
23
230
103
33
153
68
3
20
69
54
162
243
239
205
238
117
146
145
104
151
167
83
200
173
134
14
48
167
72
29
250
190
7
116
235
40
151
238
216
251
221
198
184
117
95
190
31
196
141
169
10
209
163
150
138
164
219
239
21
65
38
109
6
1
148
39
151
160
216
235
221
116
225
86
31
124
179
118
239
227
188
142
116
89
52
151
153
233
53
55
114
55
123
116
233
169
23
181
100
222
21
225
10
198
59
63
60
58
156
132
83
84
45
100
126
23
233
81
23
49
87
73
77
171
137
50
205
117
84
245
72
200
6
36
44
80
68
240
60
134
102
200
201
158
4
113
149
246
140
108
117
215
200
195
151
28
241
97
30
196
2
21
98
96
77
105
107
109
109
114
63
13
78
188
156
181
40
190
126
92
254
36
57
115
225
226
54
207
24
216
89
210
187
182
222
183
240
160
134
116
244
52
104
17
29
170
40
232
248
232
45
83
217
228
113
74
118
81
234
210
117
127
154
30
140
3
130
47
219
167
11
169
64
170
243
132
127
79
242
221
218
153
28
224
18
154
90
115
235
208
10
110
6
237
43
144
209
81
57
66
87
158
194
173
168
218
60
167
81
177
125
36
159
172
103
15
190
16
219
172
27
190
214
128
22
224
248
109
226
214
197
236
3
86
157
179
195
125
25
12
100
70
87
245
40
149
43
205
99
227
197
48
220
190
22
99
241
219
50
236
151
64
45
203
207
248
63
172
242
164
179
5
82
65
95
25
186
222
132
198
212
9
103
175
142
68
248
168
176
27
229
186
89
231
239
35
42
231
94
199
236
104
147
62
253
71
28
189
120
65
209
156
110
31
106
154
23
246
137
31
104
46
181
151
58
5
127
207
110
49
177
152
19
174
29
160
160
69
128
63
207
205
153
92
177
142
212
224
59
95
97
44
93
197
114
89
126
137
10
0
183
140
193
85
1
59
145
33
142
205
207
106
33
24
157
116
16
139
148
132
221
81
236
162
28
172
233
216
122
98
33
217
243
74
102
193
176
4
254
15
220
244
17
37
26
32
156
238
71
187
227
119
53
191
112
144
92
144
70
42
180
139
42
49
248
207
129
158
58
180
164
175
10
225
79
158
44
104
10
99
191
23
199
118
235
94
124
130
211
175
179
181
250
21
30
120
146
29
136
23
185
172
127
250
102
41
135
184
181
122
24
115
89
221
156
191
232
198
78
94
100
167
239
222
122
218
107
84
167
147
53
101
37
208
250
12
130
35
110
104
134
31
72
173
22
16
44
89
227
32
54
77
32
51
121
92
49
57
251
197
72
152
187
111
210
31
88
144
169
175
121
178
216
61
16
208
181
248
214
211
111
237
218
60
232
178
172
59
208
156
88
214
75
124
132
155
85
26
223
66
66
241
120
182
10
237
34
50
90
156
216
104
175
12
170
76
201
108
138
242
24
210
238
180
10
51
220
72
255
53
230
144
22
2
38
238
27
81
16
95
54
126
67
82
233
173
73
188
74
191
183
215
157
36
205
93
111
149
176
172
150
198
234
43
14
23
131
226
32
171
41
138
228
72
146
215
90
142
246
150
173
19
77
77
149
119
157
134
115
84
134
8
24
163
183
98
35
12
79
120
103
214
3
4
247
195
206
238
161
128
241
47
206
171
124
192
2
22
230
251
127
127
241
77
197
215
177
255
21
105
210
111
59
160
34
49
175
205
169
203
43
91
229
12
126
227
16
202
111
130
30
46
185
143
208
109
95
128
28
117
249
26
143
29
220
159
36
254
96
43
144
46
210
213
83
215
7
8
162
189
90
187
64
179
57
180
137
211
120
153
123
75
146
128
13
111
6
3
110
192
196
47
77
170
226
153
248
75
251
103
225
134
148
130
205
83
64
243
180
150
237
99
135
39
74
247
127
37
194
141
217
67
152
170
113
120
243
204
150
245
148
105
79
112
105
24
180
235
244
228
71
204
124
255
203
139
153
56
142
95
225
5
159
64
98
18
70
129
242
102
253
239
52
112
131
219
251
74
61
42
88
101
57
151
241
196
254
3
192
158
152
253
50
186
219
219
144
221
237
192
152
174
182
67
221
133
234
57
160
67
12
128
19
212
139
154
246
19
74
180
107
238
214
222
166
242
244
250
171
87
247
174
130
99
34
78
178
129
185
192
38
157
66
178
67
82
215
45
178
151
194
24
62
138
187
72
145
61
142
203
31
28
42
190
225
222
59
89
206
191
48
108
200
140
47
160
66
84
127
113
252
208
75
163
192
213
3
60
115
126
121
9
94
105
222
161
144
140
77
46
37
144
30
115
198
156
83
233
2
41
13
161
229
25
90
19
211
130
46
125
232
181
247
52
197
102
74
254
96
110
134
15
227
207
108
68
36
49
115
28
143
202
48
14
209
245
41
200
189
253
255
161
96
160
46
212
140
63
233
46
246
173
46
112
104
88
217
92
138
204
152
113
8
53
89
7
153
121
30
201
37
211
243
113
107
234
155
22
214
213
219
184
133
101
224
242
155
43
167
28
31
250
122
17
163
24
122
84
117
21
233
229
20
131
195
68
76
93
54
246
55
224
47
79
113
255
28
206
255
45
139
45
84
147
76
82
109
101
69
211
231
221
153
225
97
91
226
115
192
40
1
79
196
125
9
227
181
94
203
144
209
104
6
140
74
39
61
160
230
78
118
222
143
82
53
106
69
227
88
139
211
229
80
53
247
171
108
243
29
127
105
174
220
42
163
8
73
69
75
36
91
252
84
41
99
233
178
151
214
8
186
30
227
220
94
135
92
103
104
166
38
239
138
51
109
19
194
198
72
127
103
98
183
21
98
178
12
98
226
131
61
49
219
192
9
215
199
165
212
206
72
249
175
212
90
210
45
209
122
176
60
213
234
189
221
235
85
134
117
147
247
64
211
26
249
14
40
176
252
110
165
152
85
166
184
158
97
19
23
248
225
161
226
215
64
58
203
2
143
194
235
165
211
12
46
57
34
80
98
104
116
201
236
56
70
236
40
210
179
247
26
92
97
195
164
116
225
51
82
79
139
33
186
217
29
105
143
24
19
135
146
50
170
153
25
88
220
122
222
156
155
185
200
153
190
201
132
253
23
243
0
27
203
25
106
250
63
131
208
194
70
166
118
61
193
38
37
120
9
194
68
68
93
70
58
241
202
37
94
90
108
67
51
48
72
198
228
141
84
219
209
133
233
203
166
7
218
157
158
232
147
223
156
116
47
97
11
226
61
202
88
206
198
73
220
219
8
197
150
84
170
97
233
159
3
125
19
147
181
210
109
229
108
182
179
186
226
192
127
173
69
31
156
64
210
111
99
253
18
41
253
188
89
84
72
186
169
172
243
124
188
136
54
17
209
30
192
100
12
29
195
175
174
82
138
100
12
185
73
156
164
69
204
159
155
31
189
6
31
65
7
40
222
14
75
56
116
234
244
238
104
28
127
70
184
255
182
111
83
227
181
67
253
235
83
49
222
178
251
202
231
211
153
29
78
49
71
199
251
209
218
69
244
111
149
162
237
93
68
23
242
77
155
191
112
52
245
158
180
110
217
207
128
53
98
189
10
185
142
89
33
17
72
108
26
201
107
91
23
93
126
137
50
225
67
184
229
47
80
145
128
178
172
157
117
210
141
34
157
241
39
40
146
106
191
251
224
69
154
83
70
11
95
41
119
75
6
209
70
3
149
49
242
159
204
184
213
23
119
177
25
162
58
205
221
114
99
123
229
195
87
8
46
3
4
111
5
218
6
209
245
225
15
106
165
144
54
13
6
117
99
69
10
193
174
241
15
187
113
156
183
205
29
120
63
249
110
174
243
68
157
115
184
46
141
209
130
206
114
199
50
37
19
193
99
54
24
167
23
198
159
16
246
167
153
133
143
161
165
101
116
173
181
226
103
31
153
217
215
74
169
41
88
94
18
244
39
121
138
162
97
203
136
207
0
216
174
254
70
223
8
29
77
59
100
155
58
206
153
248
237
221
14
78
100
45
71
115
196
2
37
206
19
132
211
252
73
104
166
83
105
236
182
24
189
10
240
171
27
18
85
6
147
229
227
176
57
213
146
30
102
15
4
87
64
54
104
170
190
34
187
246
142
148
112
145
76
5
95
148
89
255
120
112
1
226
123
116
116
162
233
31
245
140
255
238
35
228
218
139
3
26
37
127
209
3
0
114
204
186
62
141
152
28
125
104
38
164
7
208
53
159
124
36
113
68
205
41
226
98
193
0
99
84
229
169
235
200
63
205
15
166
224
1
53
97
81
224
68
230
193
178
188
88
185
228
197
91
29
172
50
83
143
170
253
27
45
156
11
218
96
216
118
71
233
216
156
9
189
131
40
89
133
118
126
205
241
229
201
81
11
40
209
251
5
94
211
198
237
215
181
102
6
124
79
68
49
121
251
129
232
178
39
49
227
75
199
220
148
118
211
21
147
180
198
211
38
188
162
81
85
246
189
159
57
197
247
141
56
129
99
231
222
88
38
219
97
250
118
3
28
203
105
253
190
14
217
151
226
122
135
26
66
180
12
108
218
100
45
80
164
197
183
175
224
200
16
235
60
11
35
144
164
251
229
45
178
24
20
11
244
91
190
65
96
250
244
243
96
127
86
22
180
57
151
77
209
44
91
79
172
86
67
48
232
77
109
64
68
2
12
217
150
235
179
30
64
214
223
92
126
254
166
73
207
218
146
247
105
131
140
75
89
76
212
144
55
208
12
224
121
2
0
174
215
165
190
234
249
42
82
28
105
232
153
37
179
17
250
183
185
164
208
171
16
247
109
61
162
59
65
207
132
214
7
251
209
150
215
63
5
19
156
91
193
165
74
151
24
144
26
53
216
149
202
152
59
131
238
154
34
246
131
225
240
171
64
194
158
105
138
3
170
250
133
225
191
198
183
21
210
78
160
54
161
30
145
100
227
169
142
112
199
199
16
83
154
193
89
87
140
114
246
216
173
62
186
247
252
210
98
179
222
60
142
1
191
130
199
32
250
204
209
39
26
192
63
246
105
251
145
114
174
139
189
31
30
15
9
87
187
148
64
3
50
133
165
142
221
87
149
243
253
238
12
55
110
250
144
197
247
220
179
122
11
130
72
103
57
217
72
232
23
231
170
205
109
86
195
208
64
31
79
152
193
73
5
159
17
139
248
87
178
24
190
47
89
11
233
197
16
54
122
93
118
11
76
48
85
241
229
26
59
35
44
84
231
57
227
21
198
68
104
230
55
129
67
13
250
168
152
100
88
189
8
209
249
190
114
6
38
201
83
30
12
33
4
125
240
9
242
37
73
61
240
134
107
173
118
71
64
107
177
94
253
48
32
113
44
43
58
43
14
17
163
157
121
163
42
203
65
71
131
162
188
174
144
25
133
134
174
17
24
225
23
36
30
242
54
137
139
239
56
149
216
137
91
241
73
72
76
73
25
178
148
176
94
165
194
190
193
82
234
128
143
221
240
57
175
68
95
71
70
146
21
11
170
255
132
67
121
144
122
39
111
255
253
5
99
198
73
163
201
76
188
36
127
204
235
73
52
156
48
7
219
17
121
157
25
254
135
224
53
243
37
68
29
181
99
120
98
57
25
114
120
180
199
194
235
32
206
198
71
17
119
226
241
23
133
242
255
90
156
125
78
85
180
144
5
38
102
168
209
189
63
185
106
40
86
59
120
131
3
26
116
170
99
17
189
114
81
38
35
24
140
44
229
168
213
176
153
204
69
5
82
120
178
248
140
235
93
234
95
232
180
224
185
58
158
14
119
60
238
208
80
81
88
224
254
243
152
71
105
75
172
145
213
144
199
48
17
191
164
247
218
227
240
253
243
202
238
68
253
248
49
212
33
116
251
7
37
108
71
113
206
139
220
231
107
11
169
139
184
158
61
37
198
159
174
199
233
240
95
1
126
250
236
208
120
21
60
137
36
241
110
246
62
156
8
179
106
219
51
10
225
39
154
27
89
96
13
48
241
97
45
42
154
201
190
244
162
137
42
111
102
183
82
106
93
65
173
69
101
152
60
11
244
67
132
115
189
12
101
7
163
156
113
137
89
95
75
32
239
55
94
217
18
185
86
221
34
221
33
55
221
127
136
68
119
111
63
119
176
218
219
203
207
214
183
163
97
136
211
211
6
168
123
8
196
36
68
244
244
85
156
77
235
130
63
203
31
118
210
207
103
130
5
85
57
71
131
99
176
44
170
25
247
85
100
216
16
185
64
97
174
1
179
152
152
9
29
135
89
114
251
104
106
149
138
85
75
145
171
10
8
234
115
35
80
39
76
164
124
49
28
209
125
128
161
44
253
110
123
82
102
164
227
150
147
32
136
53
74
165
203
189
127
180
136
172
233
168
166
120
189
66
216
114
146
178
248
156
227
132
53
211
13
155
154
194
187
73
134
7
230
232
46
112
143
215
254
250
249
164
49
53
45
40
134
30
194
32
244
29
24
229
72
224
2
4
202
104
52
208
15
245
154
228
117
64
234
209
130
144
36
50
17
199
181
109
155
55
252
21
219
40
24
35
7
196
149
37
35
201
102
51
45
1
102
85
65
237
102
232
202
140
229
7
55
13
187
124
14
230
189
34
157
103
240
223
134
104
147
179
176
22
251
168
195
165
24
134
47
81
218
16
126
131
167
24
233
196
242
108
176
118
157
163
111
93
68
132
169
86
173
194
185
235
26
132
159
142
253
251
156
190
162
116
97
66
196
36
81
209
105
155
129
209
42
219
126
245
212
70
177
48
158
84
80
142
251
191
1
163
62
238
169
105
216
207
206
74
44
157
232
204
224
66
161
12
247
86
12
222
15
199
201
130
138
161
115
67
206
2
105
187
209
202
190
243
73
242
29
189
162
1
105
117
114
209
13
33
188
131
157
109
80
222
73
217
2
253
168
100
83
205
147
44
50
188
182
108
151
55
24
99
252
113
185
89
254
10
239
91
134
236
133
128
6
108
114
174
169
25
185
48
212
3
122
227
253
175
59
192
209
36
93
103
159
45
69
193
122
239
143
233
159
182
110
147
202
218
147
178
184
188
19
89
182
242
158
106
233
25
199
75
170
137
74
105
172
186
80
41
243
118
175
151
199
133
72
60
216
14
66
175
147
139
151
136
139
34
28
247
22
105
147
45
48
144
242
88
133
215
244
187
165
185
161
1
198
163
253
42
230
58
22
223
136
206
65
247
185
165
139
180
104
112
107
209
148
215
223
252
87
139
139
122
170
78
111
233
36
203
146
19
235
120
180
138
3
54
17
63
28
52
138
199
29
98
77
204
132
92
105
251
84
165
135
95
142
179
185
119
108
175
189
214
108
173
117
30
113
252
179
80
229
207
242
157
154
138
55
223
73
169
127
15
129
9
226
160
81
64
10
5
68
5
244
56
244
44
193
151
61
74
252
185
241
23
199
227
60
240
202
193
126
114
124
153
238
74
157
165
237
78
14
16
171
164
207
250
173
143
208
123
155
49
23
116
150
146
217
101
120
72
175
44
165
132
13
18
30
21
211
151
8
221
98
153
214
172
203
197
48
13
194
239
164
158
187
194
126
254
104
77
199
132
168
79
132
82
158
8
72
88
186
102
161
240
220
4
10
207
129
20
23
64
207
204
105
239
38
106
4
234
88
204
15
133
214
175
215
126
180
178
138
197
246
142
103
62
85
168
148
6
62
30
162
45
122
15
160
130
3
149
140
0
150
105
16
96
245
229
4
4
91
193
234
34
134
158
183
202
95
154
8
237
35
148
9
34
216
23
244
187
255
168
20
229
184
68
180
7
26
110
70
49
213
144
182
57
216
218
9
179
22
229
204
209
166
36
201
171
119
242
124
82
203
83
0
124
80
26
59
112
35
238
191
80
23
73
172
70
186
36
179
164
249
39
125
192
67
119
115
62
103
77
123
76
117
169
101
62
247
1
55
98
77
198
237
79
37
157
39
110
204
20
140
51
100
112
38
24
13
131
3
117
119
222
19
172
146
182
217
70
107
139
206
158
212
206
253
54
140
43
56
17
184
52
89
230
72
65
94
251
215
241
156
122
149
161
167
37
124
108
21
39
36
4
239
247
105
33
3
145
213
109
133
28
157
174
206
61
76
250
157
44
142
40
148
114
130
254
156
231
161
70
8
222
48
238
39
36
101
11
102
220
211
230
23
27
197
26
190
30
242
74
171
247
169
210
2
121
21
46
87
242
127
16
106
56
123
151
108
108
221
250
123
82
29
32
193
126
101
123
72
149
146
146
221
71
59
142
168
212
209
12
47
4
164
51
96
141
147
188
88
185
56
188
216
16
120
118
1
253
44
89
69
197
192
40
229
249
230
184
73
52
129
229
145
189
20
27
245
81
155
57
237
183
59
164
34
217
14
248
42
54
228
166
175
73
153
134
234
144
254
125
82
92
0
150
39
151
209
28
163
132
180
24
53
227
36
153
241
96
107
51
6
174
193
29
202
155
240
230
118
226
186
169
159
138
110
3
132
91
210
0
85
188
49
78
54
89
214
241
106
131
95
199
85
193
113
138
75
238
84
167
39
87
169
217
80
22
186
173
51
103
171
75
175
201
242
163
222
78
35
21
97
80
131
12
119
67
211
168
185
18
69
104
231
20
116
213
126
49
20
155
43
38
8
88
7
249
18
80
176
65
252
217
219
145
91
89
53
158
47
72
78
35
9
211
79
57
182
10
180
182
71
150
94
54
31
59
6
119
40
158
243
24
8
97
195
126
195
54
239
205
197
57
245
31
162
242
154
18
28
252
36
50
114
224
126
96
16
195
54
88
67
149
138
180
60
96
178
103
114
152
37
107
124
120
157
130
242
10
129
75
160
234
90
142
179
67
125
242
153
119
88
156
126
93
185
183
215
229
18
232
149
197
54
106
108
17
114
21
213
101
54
122
148
133
47
139
28
148
22
132
178
109
205
58
148
236
193
156
73
229
39
25
44
41
229
43
47
244
134
131
133
102
253
184
159
104
254
255
99
187
79
159
121
135
73
22
31
45
206
82
1
243
138
8
255
189
229
201
34
154
184
74
140
207
72
180
85
170
43
77
198
219
31
88
244
135
178
159
123
236
28
84
134
152
25
171
59
75
183
7
211
32
91
134
227
19
209
149
85
22
84
205
67
157
147
206
177
57
213
176
10
163
42
239
121
230
108
26
233
213
195
176
134
165
22
117
180
105
202
236
122
3
255
245
107
41
43
31
38
170
5
26
91
0
103
92
62
238
120
187
42
213
223
29
31
101
31
133
65
11
16
147
2
194
159
104
25
239
251
250
111
151
27
7
166
64
140
115
96
126
82
222
129
171
107
149
53
141
158
192
255
241
15
196
165
98
11
164
195
44
1
78
93
50
164
11
22
13
143
221
148
156
8
187
6
225
176
200
66
21
188
128
87
106
62
194
130
209
199
97
251
36
210
52
209
58
173
9
232
103
64
25
140
139
32
203
54
239
165
198
194
62
0
72
183
130
120
102
15
64
207
34
55
179
204
67
153
194
111
21
150
195
183
130
130
32
123
64
73
236
254
227
115
151
91
252
186
206
55
149
114
117
84
124
81
136
96
154
149
253
203
73
55
168
127
248
76
143
190
151
51
186
62
21
141
73
53
195
38
215
114
33
93
203
139
156
133
210
209
157
19
164
195
253
89
73
161
23
58
240
8
152
82
182
183
192
176
8
185
154
71
7
100
241
237
18
51
200
77
119
200
165
206
79
188
195
133
46
245
219
3
147
0
160
62
14
135
204
24
211
110
244
179
150
157
215
239
245
35
234
225
48
146
247
129
217
4
231
25
18
114
99
21
152
173
244
222
88
136
180
250
66
18
42
172
186
145
177
120
32
198
65
62
250
62
189
219
154
215
159
64
150
36
167
64
4
23
181
198
118
156
105
20
45
164
140
239
37
120
222
112
3
163
45
217
116
58
175
207
162
88
15
157
136
22
116
215
39
248
48
78
60
174
73
63
157
70
85
14
128
237
42
214
136
97
228
123
190
173
20
213
92
166
161
45
51
53
101
37
109
203
46
50
161
150
36
242
71
214
211
206
169
214
164
174
8
220
32
11
115
156
34
216
77
64
118
155
54
59
113
98
246
77
22
158
0
108
43
37
106
237
231
25
84
239
128
73
95
227
151
77
140
225
233
186
198
138
228
17
102
132
66
31
33
35
120
157
78
246
62
95
143
97
235
2
148
4
169
218
29
223
119
132
140
24
5
58
138
204
174
175
136
192
142
252
166
18
83
109
218
52
179
114
58
23
157
105
0
44
142
34
3
159
189
178
227
185
106
251
71
99
249
140
75
136
112
18
22
54
206
64
189
219
216
48
64
45
29
112
112
248
107
2
116
67
247
241
237
228
142
227
90
51
121
249
188
105
228
164
75
188
42
53
5
18
249
92
51
31
27
105
94
46
25
116
10
239
203
131
70
170
63
190
131
114
211
160
68
199
183
20
77
200
39
138
99
250
115
56
224
44
7
161
207
212
51
40
181
21
76
53
196
158
157
195
30
4
9
213
96
224
155
57
3
3
63
184
125
77
240
251
194
66
157
35
205
118
57
191
236
236
244
48
181
175
4
119
22
54
218
199
35
186
215
121
47
96
74
102
83
224
234
226
114
245
129
50
0
226
234
243
168
242
225
93
218
66
51
43
219
91
27
96
192
16
156
139
99
114
226
136
57
146
207
23
62
160
0
11
193
28
99
94
74
64
177
94
229
231
255
215
0
95
109
91
231
254
143
233
122
25
211
1
101
34
121
221
152
168
42
41
115
196
97
1
201
212
221
247
90
124
35
237
65
92
102
40
191
220
247
177
242
17
98
85
9
222
171
85
187
198
239
2
23
210
189
100
24
18
25
14
155
123
139
99
215
250
13
62
74
154
86
245
234
103
7
129
146
157
183
90
55
72
71
191
133
216
232
1
150
211
141
108
64
215
161
216
254
139
178
62
136
69
77
242
76
66
255
0
63
89
20
120
214
36
58
202
0
145
59
36
106
97
183
38
181
209
194
46
146
242
67
72
72
181
36
29
167
70
147
14
158
144
248
187
96
7
108
171
60
40
53
199
114
8
68
111
171
191
84
34
106
215
159
63
90
60
234
179
94
39
143
188
119
175
148
181
236
17
155
224
237
72
2
95
27
33
89
182
71
98
184
93
11
212
248
82
220
28
169
212
91
3
74
210
191
187
184
11
128
137
158
65
112
245
131
243
20
177
91
203
161
26
73
3
199
140
71
239
96
131
44
137
217
77
72
192
128
46
60
225
219
144
179
172
131
153
15
82
106
55
105
156
74
16
126
128
229
94
245
49
250
123
114
18
10
80
183
217
145
40
235
223
253
105
56
193
161
96
61
212
168
28
11
184
66
27
245
77
173
206
179
192
35
34
103
204
219
174
252
53
10
186
251
123
214
231
100
240
85
81
216
9
135
149
11
138
170
157
30
96
202
90
131
210
11
115
222
170
192
90
225
45
16
15
95
26
196
9
115
17
22
198
44
32
247
87
45
151
155
196
100
23
12
79
208
234
135
198
50
179
141
177
158
166
140
38
170
130
185
165
131
216
140
58
96
219
200
167
207
42
255
168
79
36
110
118
13
226
38
169
118
185
231
24
133
145
23
92
141
176
192
194
187
112
133
239
34
28
232
150
253
196
24
78
77
206
155
33
105
236
0
250
27
142
63
158
91
117
59
73
12
224
173
206
174
33
48
219
22
212
161
182
50
11
232
20
146
31
244
12
72
166
71
125
111
41
250
163
141
1
218
13
0
142
131
164
119
254
165
127
88
252
164
129
208
199
168
207
47
85
35
40
154
114
62
54
12
40
103
251
3
158
231
137
67
48
28
232
128
5
10
50
40
111
154
76
28
245
251
26
99
151
2
219
6
232
179
177
244
66
204
219
83
106
73
178
141
205
228
139
191
141
54
131
130
121
122
230
9
183
66
56
249
219
191
231
12
163
176
22
63
35
143
57
67
188
88
43
34
138
20
87
164
15
160
236
96
165
214
40
157
7
177
91
196
194
204
219
82
28
231
40
108
136
119
203
208
92
40
188
83
111
200
123
120
94
71
23
156
194
30
95
37
145
118
29
121
224
94
50
251
156
154
253
255
140
110
171
31
191
173
190
50
103
231
184
196
75
157
148
166
108
76
158
40
37
241
49
14
180
134
205
123
21
136
181
51
2
100
104
177
142
67
11
107
104
178
160
141
36
98
240
82
17
181
137
207
165
204
183
67
228
245
46
11
38
127
204
131
99
30
219
192
2
44
60
188
111
154
238
209
55
239
24
23
149
27
28
227
17
146
254
144
220
74
254
206
114
42
35
23
13
7
124
150
96
131
127
214
133
31
129
164
230
165
116
141
77
26
22
252
131
31
31
204
169
57
29
46
11
141
3
114
160
106
155
214
192
47
134
231
21
61
5
179
231
109
43
103
155
138
64
226
219
140
66
34
120
226
142
146
2
16
208
143
36
243
116
129
69
63
220
228
37
33
128
250
205
147
181
18
130
40
33
50
87
99
50
149
42
185
78
248
179
216
43
171
62
228
55
228
240
212
106
210
52
159
89
93
234
165
120
119
161
217
128
135
74
179
100
125
195
101
52
177
162
95
69
216
79
212
37
240
73
114
25
154
90
17
11
244
231
74
207
109
7
236
195
79
19
106
205
147
92
159
236
124
249
128
143
124
48
164
147
90
3
132
171
230
148
1
218
251
156
27
106
39
88
239
55
45
93
254
71
107
18
248
131
143
193
111
112
134
58
34
133
233
148
235
244
247
70
17
86
18
102
181
96
130
164
99
243
254
57
133
206
142
165
92
187
142
178
36
254
70
22
23
66
0
227
194
7
145
66
103
172
237
102
169
134
143
39
107
77
237
87
61
221
139
183
123
132
137
177
182
82
150
220
221
224
86
67
76
17
250
44
27
191
195
36
241
92
156
5
199
88
1
38
46
94
214
21
119
156
198
202
39
93
131
112
197
22
199
72
12
242
19
235
156
14
138
114
199
211
94
57
223
5
225
89
171
75
82
205
145
120
143
196
70
197
102
162
135
111
74
155
221
147
233
79
107
201
200
206
152
45
202
78
134
161
48
80
172
243
231
236
71
72
57
251
252
136
205
40
129
138
27
246
127
173
163
185
75
84
95
79
74
136
38
88
244
77
198
7
69
10
123
207
90
135
97
159
110
231
239
10
139
83
161
40
30
165
20
142
13
136
204
236
210
249
137
218
169
143
195
25
153
35
174
219
178
100
68
122
53
9
184
168
2
92
169
166
96
145
20
9
158
67
64
176
27
99
67
150
248
168
102
82
71
143
240
15
180
79
61
56
59
45
86
8
0
70
120
204
37
166
81
161
182
72
140
214
200
164
151
185
160
255
235
247
37
84
195
219
3
209
24
52
136
228
224
205
42
223
44
136
8
223
177
71
96
159
106
20
95
59
111
28
121
223
234
75
111
41
145
21
39
153
186
247
167
156
176
22
125
248
195
33
32
238
199
249
82
229
123
136
34
249
235
33
40
86
141
219
205
91
140
161
244
69
52
238
94
95
117
64
117
5
108
240
159
126
18
